<?xml version="1.0" encoding="UTF-8" standalone="no"?>
<svg
   xmlns:dc="http://purl.org/dc/elements/1.1/"
   xmlns:cc="http://creativecommons.org/ns#"
   xmlns:rdf="http://www.w3.org/1999/02/22-rdf-syntax-ns#"
   xmlns:svg="http://www.w3.org/2000/svg"
   xmlns="http://www.w3.org/2000/svg"
   xmlns:sodipodi="http://sodipodi.sourceforge.net/DTD/sodipodi-0.dtd"
   xmlns:inkscape="http://www.inkscape.org/namespaces/inkscape"
   width="8.1878824in"
   height="2.9755204in"
   viewBox="0 0 207.97221 75.578217"
   version="1.1"
   id="svg8"
   inkscape:version="0.91 r13725"
   sodipodi:docname="logo_bmpro_cannabis.svg"
   inkscape:export-filename="/home/miguel/Proyectos/Elementos graficos/Logotipos Ciel Technology/Entrega-logo-Ciel/PNG - RGB trasparente/Logo BPM pro Negro PNG trasparente RGB.png"
   inkscape:export-xdpi="299"
   inkscape:export-ydpi="299">
  <defs
     id="defs2">
    <rect
       x="40.464886"
       y="158.10786"
       width="201.85992"
       height="44.063751"
       id="rect1408" />
    <rect
       x="190.80185"
       y="4.018558"
       width="17.823553"
       height="17.087212"
       id="rect1378" />
    <rect
       x="132.07487"
       y="187.34151"
       width="25.017963"
       height="25.193815"
       id="rect1326" />
    <rect
       x="14.16298"
       y="225.74197"
       width="142.57253"
       height="18.370943"
       id="rect1307" />
    <rect
       x="17.782551"
       y="189.70273"
       width="109.41171"
       height="15.378312"
       id="rect1301" />
    <rect
       x="36.406704"
       y="169.63124"
       width="206.9666"
       height="19.934074"
       id="rect875" />
    <rect
       x="37.895111"
       y="171.32057"
       width="202.28323"
       height="22.898727"
       id="rect880" />
    <rect
       x="38.743092"
       y="172.01218"
       width="199.89438"
       height="21.675749"
       id="rect874" />
    <inkscape:perspective
       sodipodi:type="inkscape:persp3d"
       inkscape:vp_x="0 : 107.95 : 1"
       inkscape:vp_y="0 : 1000 : 0"
       inkscape:vp_z="279.4 : 107.95 : 1"
       inkscape:persp3d-origin="139.7 : 71.966667 : 1"
       id="perspective1214" />
    <rect
       x="100.39217"
       y="145.7775"
       width="74.395103"
       height="24.95944"
       id="rect846" />
    <rect
       x="99.886963"
       y="145.58743"
       width="75.011436"
       height="26.512325"
       id="rect882" />
  </defs>
  <sodipodi:namedview
     id="base"
     pagecolor="#ffffff"
     bordercolor="#666666"
     borderopacity="1.0"
     inkscape:pageopacity="0.0"
     inkscape:pageshadow="2"
     inkscape:zoom="0.70797334"
     inkscape:cx="281.38148"
     inkscape:cy="75.910714"
     inkscape:document-units="mm"
     inkscape:current-layer="layer2"
     inkscape:document-rotation="0"
     showgrid="false"
     units="in"
     inkscape:window-width="1366"
     inkscape:window-height="705"
     inkscape:window-x="-8"
     inkscape:window-y="-8"
     inkscape:window-maximized="1"
     inkscape:snap-global="true"
     showguides="true"
     inkscape:guide-bbox="true"
     inkscape:lockguides="true"
     inkscape:showpageshadow="true"
     borderlayer="false"
     showborder="true"
     viewbox-width="279.4"
     fit-margin-top="0"
     fit-margin-left="0"
     fit-margin-right="0"
     fit-margin-bottom="0">
    <inkscape:grid
       type="xygrid"
       id="grid865"
       originx="-76.106728"
       originy="-100.94712" />
    <sodipodi:guide
       position="145.72673,62.930515"
       orientation="0,-1"
       id="guide1027"
       inkscape:locked="true" />
    <sodipodi:guide
       position="27.482983,12.420197"
       orientation="0,-1"
       id="guide1029"
       inkscape:locked="true" />
    <sodipodi:guide
       position="195.552,81.127664"
       orientation="1,0"
       id="guide1031"
       inkscape:locked="true" />
    <sodipodi:guide
       position="12.420193,37.260586"
       orientation="1,0"
       id="guide1033"
       inkscape:locked="true" />
    <sodipodi:guide
       position="207.9722,51.266346"
       orientation="1,0"
       id="guide1035"
       inkscape:locked="true" />
    <sodipodi:guide
       position="127.63733,3.7919768e-06"
       orientation="0,-1"
       id="guide1037"
       inkscape:locked="true" />
    <sodipodi:guide
       position="153.53476,75.578214"
       orientation="0,-1"
       id="guide1054"
       inkscape:locked="true" />
    <sodipodi:guide
       position="-1.614746e-06,42.545776"
       orientation="1,0"
       id="guide1071"
       inkscape:locked="true" />
  </sodipodi:namedview>
  <metadata
     id="metadata5">
    <rdf:RDF>
      <cc:Work
         rdf:about="">
        <dc:format>image/svg+xml</dc:format>
        <dc:type
           rdf:resource="http://purl.org/dc/dcmitype/StillImage" />
        <dc:title></dc:title>
      </cc:Work>
    </rdf:RDF>
  </metadata>
  <g
     inkscape:label="Boceto"
     inkscape:groupmode="layer"
     id="layer1"
     style="display:inline;opacity:0.996"
     transform="translate(-38.053368,-50.47356)">
    <text
       xml:space="preserve"
       id="text880"
       style="font-size:10.5833px;line-height:1.76389px;font-family:JuneBug;-inkscape-font-specification:JuneBug;letter-spacing:0px;word-spacing:0px;white-space:pre;shape-inside:url(#rect882);" />
    <text
       xml:space="preserve"
       id="text844"
       style="font-style:normal;font-variant:normal;font-weight:normal;font-stretch:normal;font-size:10.5833px;line-height:0.529167px;font-family:'Smooth Circulars';-inkscape-font-specification:'Smooth Circulars';letter-spacing:0px;word-spacing:0px;white-space:pre;shape-inside:url(#rect846);"
       transform="translate(1.6811031,12.870584)" />
  </g>
  <g
     inkscape:groupmode="layer"
     id="layer2"
     inkscape:label="Letra B"
     style="display:inline;opacity:0.991"
     transform="translate(-38.053368,-50.47356)">
    <path
       id="rect986-7-7-8-8"
       style="display:inline;opacity:1;fill:#43a047;fill-opacity:0.97647059;stroke-width:5.37014;stroke-linecap:round;stroke-opacity:0.996078"
       d="m 76.244141,54.289062 c -15.802209,0 -28.523438,12.721229 -28.523438,28.523438 v 79.36523 c 0,15.80221 12.721229,28.52344 28.523438,28.52344 H 368.4668 c 15.8022,0 28.52343,-12.72123 28.52343,-28.52344 V 82.8125 c 0,-15.802209 -12.72123,-28.523437 -28.52343,-28.523438 z m 2.611328,22.6875 h 14.61914 58.478511 c 8.09917,0 14.61915,6.766905 14.61915,15.171876 v 23.462892 c -0.17595,3.86937 -3.236,6.92969 -7.00977,6.92969 3.77377,0 6.83379,3.0602 7.00977,6.92968 v 23.36328 c 0,8.40485 -6.51998,15.17188 -14.61915,15.17188 H 93.474609 78.855469 v -18.20508 h 20.759765 2.630856 40.64258 c 3.40164,0 6.14063,-2.84279 6.14063,-6.37305 v -5.46093 c 0,-3.52984 -2.73899,-6.37305 -6.14063,-6.37305 h -37.71875 v -18.20508 h 37.71875 c 3.40164,0 6.14063,-2.84107 6.14063,-6.37109 v -5.46289 c 0,-3.530146 -2.73899,-6.371096 -6.14063,-6.371096 H 99.615234 96.398438 l 0.05273,15.169926 h -0.05273 v 15.17187 h 0.01562 l -0.02539,15.39844 H 78.855469 Z M 290.78906,77.15625 h 23.2168 c 3.82904,0.180703 6.85742,3.321844 6.85742,7.197266 0,-3.875422 3.02827,-7.016264 6.85742,-7.197266 h 23.11914 c 8.31719,0 15.01368,6.696508 15.01368,15.013672 v 60.052738 15.01172 h -18.01758 v -21.31836 -2.70118 -41.73632 c 0,-3.493225 -2.81146,-6.306645 -6.30469,-6.306645 h -5.4043 c -3.49326,0 -6.30664,2.81342 -6.30664,6.306645 v 38.73242 h -18.01562 v -38.73242 c 0,-3.493225 -2.81146,-6.306645 -6.30469,-6.306645 h -5.4043 c -3.49326,0 -6.30664,2.81342 -6.30664,6.306645 v 44.4375 3.30273 h 0.0117 v 18.01563 H 275.77734 V 152.22266 92.169922 c 0,-8.317164 6.69453,-15.013672 15.01172,-15.013672 z m -110.86133,0.05078 h 15.01172 60.05274 c 8.31726,0 15.01172,6.694494 15.01172,15.011719 V 115.4375 c -1.81251,15.73974 -8.20188,17.22822 -24.32032,15.81641 h -38.73437 v -18.01563 h 38.73437 c 3.49323,0 6.30469,-2.81342 6.30469,-6.30664 v -5.4043 c 0,-3.493214 -2.81146,-6.304685 -6.30469,-6.304685 h -44.43945 -3.30273 l 0.0547,15.011725 h -0.0547 v 15.01367 h 0.0176 l -0.0254,42.03711 h -18.00586 z"
       transform="matrix(0.26458333,0,0,0.26458333,38.053368,50.47356)" />
    <path
       id="rect856-3-1-8-3-2-97-6-9-3"
       style="display:inline;opacity:0.982081;fill:#43a047;fill-opacity:1;stroke-width:0.499935;stroke-linecap:round"
       d="m 147.42223,71.456487 v 23.833142 h 4.76372 l 0.006,-11.122134 h -0.005 V 80.19531 h 0.0143 l -0.0143,-3.972185 h 0.87389 11.75774 c 0.92425,0 1.66834,0.744073 1.66834,1.668305 v 1.42998 c 0,0.924264 -0.74409,1.668321 -1.66834,1.668321 h -10.24833 v 4.766638 h 10.24831 c 4.26465,0.373559 5.95543,-0.02014 6.43499,-4.184598 v -6.143083 c 0,-2.200599 -1.77161,-3.972201 -3.97223,-3.972201 h -15.88888 z"
       sodipodi:nodetypes="cccccccccssssccccsscc" />
    <path
       id="rect856-3-9-4-4-1-3-2-2-0"
       style="display:inline;opacity:0.982081;fill:#43a047;fill-opacity:1;stroke-width:0.499935;stroke-linecap:round"
       d="m 173.03458,71.533048 v 18.272225 h 0.0225 v 0.794517 h -0.0225 v 4.7664 h 3.97187 0.81667 v -4.7664 h -0.0197 v -3.616831 h -0.002 l 0.003,-2.738998 h -0.005 v -3.971868 h 0.0143 l -0.0143,-3.972249 h 0.87382 11.75778 c 0.92425,0 1.66837,0.744105 1.66837,1.668353 v 1.429663 c 0,0.924248 -0.74412,1.668369 -1.66837,1.668369 h -10.24853 v 4.76678 h 10.24841 c 0.92423,0 1.66835,0.744105 1.66835,1.668353 v 1.430091 c 0,0.05249 -0.003,0.104185 -0.008,0.155405 v 6.279379 l 4.71848,0.0079 c 0,0 0.056,-1.780197 0.056,-3.98078 v -6.11679 c -0.0477,-1.013115 -0.87884,-1.814465 -1.90418,-1.814465 1.02534,0 1.85643,-0.801351 1.90421,-1.814466 v -6.142939 c 0,-2.200584 -1.77165,-3.972265 -3.97225,-3.972265 h -15.88834 z"
       sodipodi:nodetypes="ccccccccccccccccccssssccssscccccccsscc" />
    <path
       id="rect856-7-5-26-3-1-3"
       style="display:inline;fill:#43a047;fill-opacity:1;stroke-width:0.500825;stroke-linecap:round"
       d="m 202.8342,71.569346 c -2.20448,0 -3.97924,1.774758 -3.97924,3.979258 v 15.91703 c 0,2.204516 1.77476,3.979273 3.97924,3.979273 h 15.91705 c 2.2045,0 3.97927,-1.774757 3.97927,-3.979273 v -15.91703 c 0,-2.2045 -1.77477,-3.979258 -3.97927,-3.979258 z m 3.31593,4.974072 h 9.28517 c 1.28598,0 2.32112,1.035156 2.32112,2.321133 v 9.285183 c 0,1.285977 -1.03514,2.321085 -2.32112,2.321085 h -9.28517 c -1.28598,0 -2.3211,-1.035108 -2.3211,-2.321085 v -9.285183 c 0,-1.285977 1.03512,-2.321133 2.3211,-2.321133 z" />
    <g
       id="g1386"
       style="fill:#43a047;fill-opacity:0.99215686"
       transform="matrix(1.0882409,0,0,1.0882409,82.688928,-119.38005)">
      <path
         id="path1330"
         style="opacity:1;fill:#43a047;fill-opacity:0.99215686;stroke-width:1.10858;stroke-linecap:round;stroke-opacity:0.996078"
         d="M 506.25,635.02539 A 16.991841,16.991841 0 0 0 489.25781,652.01758 16.991841,16.991841 0 0 0 506.25,669.00977 16.991841,16.991841 0 0 0 523.24219,652.01758 16.991841,16.991841 0 0 0 506.25,635.02539 Z m 0,4.64258 A 12.349434,12.349434 0 0 1 518.59961,652.01758 12.349434,12.349434 0 0 1 506.25,664.36719 12.349434,12.349434 0 0 1 493.90039,652.01758 12.349434,12.349434 0 0 1 506.25,639.66797 Z"
         transform="scale(0.26458333)" />
      <text
         xml:space="preserve"
         id="text1376"
         style="font-size:10.5833px;line-height:1.76389px;font-family:JuneBug;-inkscape-font-specification:JuneBug;letter-spacing:0px;word-spacing:0px;white-space:pre;shape-inside:url(#rect1378);fill:#43a047;fill-opacity:0.99215686"
         transform="matrix(0.49127617,0,0,0.44962479,38.020019,170.67182)"><tspan
           x="190.80273"
           y="7.9524275"
           id="tspan4223"
           style="fill:#43a047;fill-opacity:0.99215686"><tspan
             style="font-style:normal;font-variant:normal;font-weight:bold;font-stretch:normal;font-family:sans-serif;-inkscape-font-specification:'sans-serif Bold';fill:#43a047;fill-opacity:0.99215686"
             id="tspan4225">R</tspan></tspan></text>
    </g>
    <text
       xml:space="preserve"
       id="text1406"
       style="font-size:11.41494274px;line-height:1.76389003px;font-family:JuneBug;-inkscape-font-specification:JuneBug;letter-spacing:0px;word-spacing:0px;white-space:pre;fill:#000000"
       x="16.792799"
       y="-63.055443"><tspan
         x="60.437393"
         y="111.71811"
         id="tspan4228"
         style="font-style:normal;font-variant:normal;font-weight:normal;font-stretch:normal;font-family:Pirulen;-inkscape-font-specification:Pirulen;fill:#43a047;fill-opacity:1">
TRAZABILIDAD CANNABIS</tspan></text>
    <text
       xml:space="preserve"
       id="text872"
       style="font-size:10.5833px;line-height:1.76389px;font-family:JuneBug;-inkscape-font-specification:JuneBug;letter-spacing:0px;word-spacing:0px;white-space:pre;shape-inside:url(#rect874);fill:#ffffff;" />
    <text
       xml:space="preserve"
       id="text1324"
       style="font-style:normal;font-variant:normal;font-weight:normal;font-stretch:normal;font-size:10.5833px;line-height:1.76389px;font-family:Arial;-inkscape-font-specification:Arial;letter-spacing:0px;word-spacing:0px;white-space:pre;shape-inside:url(#rect1326);fill:#000000;" />
  </g>
</svg>
