<?xml version="1.0" encoding="UTF-8" standalone="no"?>
<svg
   width="8.1878824in"
   height="2.9755204in"
   viewBox="0 0 207.97221 75.578217"
   version="1.1"
   id="svg8"
   inkscape:version="1.1 (1:1.1+202106031931+af4d65493e)"
   sodipodi:docname="logotipo color sobre fondo blanco.svg"
   inkscape:export-filename="/home/miguel/Proyectos/Elementos graficos/Logotipos Ciel Technology/Entrega-logo-Ciel/PNG - RGB trasparente/Logo BPM pro Negro PNG trasparente RGB.png"
   inkscape:export-xdpi="299"
   inkscape:export-ydpi="299"
   xmlns:inkscape="http://www.inkscape.org/namespaces/inkscape"
   xmlns:sodipodi="http://sodipodi.sourceforge.net/DTD/sodipodi-0.dtd"
   xmlns="http://www.w3.org/2000/svg"
   xmlns:svg="http://www.w3.org/2000/svg"
   xmlns:rdf="http://www.w3.org/1999/02/22-rdf-syntax-ns#"
   xmlns:cc="http://creativecommons.org/ns#"
   xmlns:dc="http://purl.org/dc/elements/1.1/">
  <defs
     id="defs2">
    <rect
       x="40.464886"
       y="158.10786"
       width="201.85992"
       height="44.063751"
       id="rect1408" />
    <rect
       x="190.80185"
       y="4.018558"
       width="17.823553"
       height="17.087212"
       id="rect1378" />
    <rect
       x="132.07487"
       y="187.34151"
       width="25.017963"
       height="25.193815"
       id="rect1326" />
    <rect
       x="14.16298"
       y="225.74197"
       width="142.57253"
       height="18.370943"
       id="rect1307" />
    <rect
       x="17.782551"
       y="189.70273"
       width="109.41171"
       height="15.378312"
       id="rect1301" />
    <rect
       x="36.406704"
       y="169.63124"
       width="206.9666"
       height="19.934074"
       id="rect875" />
    <rect
       x="37.895111"
       y="171.32057"
       width="202.28323"
       height="22.898727"
       id="rect880" />
    <rect
       x="38.743092"
       y="172.01218"
       width="199.89438"
       height="21.675749"
       id="rect874" />
    <inkscape:perspective
       sodipodi:type="inkscape:persp3d"
       inkscape:vp_x="0 : 107.95 : 1"
       inkscape:vp_y="0 : 1000 : 0"
       inkscape:vp_z="279.4 : 107.95 : 1"
       inkscape:persp3d-origin="139.7 : 71.966667 : 1"
       id="perspective1214" />
    <rect
       x="100.39217"
       y="145.7775"
       width="74.395103"
       height="24.95944"
       id="rect846" />
    <rect
       x="99.886963"
       y="145.58743"
       width="75.011436"
       height="26.512325"
       id="rect882" />
  </defs>
  <sodipodi:namedview
     id="base"
     pagecolor="#ffffff"
     bordercolor="#666666"
     borderopacity="1.0"
     inkscape:pageopacity="0.0"
     inkscape:pageshadow="2"
     inkscape:zoom="0.70797334"
     inkscape:cx="281.08403"
     inkscape:cy="74.155335"
     inkscape:document-units="mm"
     inkscape:current-layer="layer2"
     inkscape:document-rotation="0"
     showgrid="false"
     units="in"
     inkscape:window-width="1920"
     inkscape:window-height="1055"
     inkscape:window-x="0"
     inkscape:window-y="0"
     inkscape:window-maximized="1"
     inkscape:snap-global="true"
     showguides="true"
     inkscape:guide-bbox="true"
     inkscape:lockguides="true"
     inkscape:showpageshadow="true"
     borderlayer="false"
     showborder="true"
     viewbox-width="279.4"
     fit-margin-top="0"
     fit-margin-left="0"
     fit-margin-right="0"
     fit-margin-bottom="0"
     inkscape:pagecheckerboard="1">
    <inkscape:grid
       type="xygrid"
       id="grid865"
       originx="-76.106728"
       originy="-100.94712" />
    <sodipodi:guide
       position="145.72673,62.930515"
       orientation="0,-1"
       id="guide1027"
       inkscape:locked="true" />
    <sodipodi:guide
       position="27.482983,12.420197"
       orientation="0,-1"
       id="guide1029"
       inkscape:locked="true" />
    <sodipodi:guide
       position="195.552,81.127664"
       orientation="1,0"
       id="guide1031"
       inkscape:locked="true" />
    <sodipodi:guide
       position="12.420193,37.260586"
       orientation="1,0"
       id="guide1033"
       inkscape:locked="true" />
    <sodipodi:guide
       position="207.9722,51.266346"
       orientation="1,0"
       id="guide1035"
       inkscape:locked="true" />
    <sodipodi:guide
       position="127.63733,3.7919768e-06"
       orientation="0,-1"
       id="guide1037"
       inkscape:locked="true" />
    <sodipodi:guide
       position="153.53476,75.578214"
       orientation="0,-1"
       id="guide1054"
       inkscape:locked="true" />
    <sodipodi:guide
       position="-1.614746e-06,42.545776"
       orientation="1,0"
       id="guide1071"
       inkscape:locked="true" />
  </sodipodi:namedview>
  <metadata
     id="metadata5">
    <rdf:RDF>
      <cc:Work
         rdf:about="">
        <dc:format>image/svg+xml</dc:format>
        <dc:type
           rdf:resource="http://purl.org/dc/dcmitype/StillImage" />
        <dc:title />
      </cc:Work>
    </rdf:RDF>
  </metadata>
  <g
     inkscape:label="Boceto"
     inkscape:groupmode="layer"
     id="layer1"
     style="display:inline;opacity:0.996"
     transform="translate(-38.053368,-50.47356)">
    <text
       xml:space="preserve"
       id="text880"
       style="font-size:10.5833px;line-height:1.76389px;font-family:JuneBug;-inkscape-font-specification:JuneBug;letter-spacing:0px;word-spacing:0px;white-space:pre;shape-inside:url(#rect882)" />
    <text
       xml:space="preserve"
       id="text844"
       style="font-style:normal;font-variant:normal;font-weight:normal;font-stretch:normal;font-size:10.5833px;line-height:0.529167px;font-family:'Smooth Circulars';-inkscape-font-specification:'Smooth Circulars';letter-spacing:0px;word-spacing:0px;white-space:pre;shape-inside:url(#rect846)"
       transform="translate(1.6811031,12.870584)" />
  </g>
  <g
     inkscape:groupmode="layer"
     id="layer2"
     inkscape:label="Letra B"
     style="display:inline;opacity:0.991"
     transform="translate(-38.053368,-50.47356)">
    <g
       id="g1712">
      <path
         id="rect986-7-7-8-8"
         style="display:inline;fill:#43a047;fill-opacity:0.97647059;stroke-width:1.42085;stroke-linecap:round;stroke-opacity:0.996078"
         d="m 58.226297,64.837541 c -4.181001,0 -7.546826,3.365825 -7.546826,7.546826 v 20.998717 c 0,4.181001 3.365825,7.546826 7.546826,7.546826 h 77.317243 c 4.181,0 7.54683,-3.365825 7.54683,-7.546826 V 72.384367 c 0,-4.181001 -3.36583,-7.546826 -7.54683,-7.546826 z m 0.690914,6.002734 h 3.86798 15.472439 c 2.142906,0 3.867984,1.79041 3.867984,4.014226 v 6.20789 c -0.04655,1.02377 -0.856192,1.83348 -1.854668,1.83348 0.998476,0 1.808107,0.809678 1.854668,1.833478 v 6.181534 c 0,2.223784 -1.725078,4.014227 -3.867984,4.014227 h -15.472439 -3.86798 v -4.816761 h 5.492687 0.696081 10.753349 c 0.900017,0 1.624708,-0.752155 1.624708,-1.686203 v -1.444871 c 0,-0.933936 -0.724691,-1.686202 -1.624708,-1.686202 h -9.979752 v -4.816761 h 9.979752 c 0.900017,0 1.624708,-0.7517 1.624708,-1.685684 v -1.44539 c 0,-0.934018 -0.724691,-1.685686 -1.624708,-1.685686 h -11.44943 -0.85111 l 0.01395,4.01371 h -0.01395 v 4.014224 h 0.0041 l -0.0067,4.07417 h -4.638992 z m 56.074099,0.04754 h 6.14277 c 1.0131,0.04781 1.81436,0.878904 1.81436,1.904276 0,-1.025372 0.80123,-1.856386 1.81436,-1.904276 h 6.11694 c 2.20059,0 3.97237,1.771784 3.97237,3.972367 v 15.888953 3.971851 h -4.76715 v -5.64048 -0.714687 -11.042734 c 0,-0.924249 -0.74387,-1.668633 -1.66812,-1.668633 h -1.42988 c -0.92426,0 -1.66864,0.744384 -1.66864,1.668633 v 10.247952 h -4.76663 V 77.323085 c 0,-0.924249 -0.74386,-1.668633 -1.66811,-1.668633 h -1.42989 c -0.92426,0 -1.66863,0.744384 -1.66863,1.668633 v 11.757421 0.873848 h 0.003 v 4.766635 h -4.7687 V 90.749138 74.860185 c 0,-2.200583 1.77127,-3.972367 3.97186,-3.972367 z m -29.332064,0.01344 h 3.971851 15.888953 c 2.20061,0 3.97185,1.771252 3.97185,3.971851 V 81.0164 c -0.47956,4.164473 -2.17008,4.5583 -6.43475,4.184759 H 92.808682 v -4.766636 h 10.248468 c 0.92425,0 1.66812,-0.744384 1.66812,-1.668632 v -1.429887 c 0,-0.924246 -0.74387,-1.668115 -1.66812,-1.668115 H 91.299213 90.425365 l 0.01447,3.971852 h -0.01447 v 3.972367 h 0.0047 l -0.0067,11.122319 h -4.764051 z" />
      <path
         id="rect856-3-1-8-3-2-97-6-9-3"
         style="display:inline;opacity:0.982081;fill:#43a047;fill-opacity:1;stroke-width:0.499935;stroke-linecap:round"
         d="m 147.42223,71.456487 v 23.833142 h 4.76372 l 0.006,-11.122134 h -0.005 V 80.19531 h 0.0143 l -0.0143,-3.972185 h 0.87389 11.75774 c 0.92425,0 1.66834,0.744073 1.66834,1.668305 v 1.42998 c 0,0.924264 -0.74409,1.668321 -1.66834,1.668321 h -10.24833 v 4.766638 h 10.24831 c 4.26465,0.373559 5.95543,-0.02014 6.43499,-4.184598 v -6.143083 c 0,-2.200599 -1.77161,-3.972201 -3.97223,-3.972201 h -15.88888 z"
         sodipodi:nodetypes="cccccccccssssccccsscc" />
      <path
         id="rect856-3-9-4-4-1-3-2-2-0"
         style="display:inline;opacity:0.982081;fill:#43a047;fill-opacity:1;stroke-width:0.499935;stroke-linecap:round"
         d="m 173.03458,71.533048 v 18.272225 h 0.0225 v 0.794517 h -0.0225 v 4.7664 h 3.97187 0.81667 v -4.7664 h -0.0197 v -3.616831 h -0.002 l 0.003,-2.738998 h -0.005 v -3.971868 h 0.0143 l -0.0143,-3.972249 h 0.87382 11.75778 c 0.92425,0 1.66837,0.744105 1.66837,1.668353 v 1.429663 c 0,0.924248 -0.74412,1.668369 -1.66837,1.668369 h -10.24853 v 4.76678 h 10.24841 c 0.92423,0 1.66835,0.744105 1.66835,1.668353 v 1.430091 c 0,0.05249 -0.003,0.104185 -0.008,0.155405 v 6.279379 l 4.71848,0.0079 c 0,0 0.056,-1.780197 0.056,-3.98078 v -6.11679 c -0.0477,-1.013115 -0.87884,-1.814465 -1.90418,-1.814465 1.02534,0 1.85643,-0.801351 1.90421,-1.814466 v -6.142939 c 0,-2.200584 -1.77165,-3.972265 -3.97225,-3.972265 h -15.88834 z"
         sodipodi:nodetypes="ccccccccccccccccccssssccssscccccccsscc" />
      <path
         id="rect856-7-5-26-3-1-3"
         style="display:inline;fill:#43a047;fill-opacity:1;stroke-width:0.500825;stroke-linecap:round"
         d="m 202.8342,71.569346 c -2.20448,0 -3.97924,1.774758 -3.97924,3.979258 v 15.91703 c 0,2.204516 1.77476,3.979273 3.97924,3.979273 h 15.91705 c 2.2045,0 3.97927,-1.774757 3.97927,-3.979273 v -15.91703 c 0,-2.2045 -1.77477,-3.979258 -3.97927,-3.979258 z m 3.31593,4.974072 h 9.28517 c 1.28598,0 2.32112,1.035156 2.32112,2.321133 v 9.285183 c 0,1.285977 -1.03514,2.321085 -2.32112,2.321085 h -9.28517 c -1.28598,0 -2.3211,-1.035108 -2.3211,-2.321085 v -9.285183 c 0,-1.285977 1.03512,-2.321133 2.3211,-2.321133 z" />
      <g
         id="g1386"
         style="fill:#43a047;fill-opacity:0.99215686"
         transform="matrix(1.0882409,0,0,1.0882409,82.688928,-119.38005)">
        <path
           id="path1330"
           style="opacity:1;fill:#43a047;fill-opacity:0.99215686;stroke-width:1.10858;stroke-linecap:round;stroke-opacity:0.996078"
           d="M 506.25,635.02539 A 16.991841,16.991841 0 0 0 489.25781,652.01758 16.991841,16.991841 0 0 0 506.25,669.00977 16.991841,16.991841 0 0 0 523.24219,652.01758 16.991841,16.991841 0 0 0 506.25,635.02539 Z m 0,4.64258 A 12.349434,12.349434 0 0 1 518.59961,652.01758 12.349434,12.349434 0 0 1 506.25,664.36719 12.349434,12.349434 0 0 1 493.90039,652.01758 12.349434,12.349434 0 0 1 506.25,639.66797 Z"
           transform="scale(0.26458333)" />
        <text
           xml:space="preserve"
           id="text1376"
           style="font-size:10.5833px;line-height:1.76389px;font-family:JuneBug;-inkscape-font-specification:JuneBug;letter-spacing:0px;word-spacing:0px;white-space:pre;shape-inside:url(#rect1378);fill:#43a047;fill-opacity:0.99215686"
           transform="matrix(0.49127617,0,0,0.44962479,38.020019,170.67182)"><tspan
             x="190.80273"
             y="7.6506537"
             id="tspan1849"><tspan
               style="font-weight:bold;font-family:sans-serif;-inkscape-font-specification:'sans-serif Bold'"
               id="tspan1847">R</tspan></tspan></text>
      </g>
    </g>
    <g
       id="g1683">
      <path
         d="m 56.583259,105.77054 h 8.201025 v 0.99061 h -3.419475 v 5.715 h -1.266826 v -5.715 h -3.514724 z"
         style="font-size:8.83105px;line-height:1.46748px;font-family:Pirulen;-inkscape-font-specification:Pirulen;letter-spacing:0px;word-spacing:0px;white-space:pre;fill:#43a047;fill-opacity:0.992157;stroke-width:1.07858"
         id="path860" />
      <path
         d="m 65.632,112.47615 v -6.70561 h 5.305425 q 2.390775,0 2.390775,1.44781 v 0.81914 q 0,1.20969 -1.65735,1.40971 l 1.590675,3.02895 h -1.35255 L 70.33735,109.4853 h -3.438525 v 2.99085 z m 1.266825,-5.715 v 1.73354 h 4.0386 q 1.12395,0 1.12395,-0.4572 v -0.81914 q 0,-0.4572 -1.12395,-0.4572 z"
         style="font-size:8.83105px;line-height:1.46748px;font-family:Pirulen;-inkscape-font-specification:Pirulen;letter-spacing:0px;word-spacing:0px;white-space:pre;fill:#43a047;fill-opacity:0.992157;stroke-width:1.07858"
         id="path862" />
      <path
         d="m 83.691399,112.47615 h -1.3716 l -3.514726,-5.47688 -3.571875,5.47688 h -1.35255 l 4.457701,-6.70561 h 0.923925 z"
         style="font-size:8.83105px;line-height:1.46748px;font-family:Pirulen;-inkscape-font-specification:Pirulen;letter-spacing:0px;word-spacing:0px;white-space:pre;fill:#43a047;fill-opacity:0.992157;stroke-width:1.07858"
         id="path864" />
      <path
         d="m 84.310512,105.77054 h 9.010649 v 0.85726 l -6.810375,4.7625 h 6.810375 v 1.08585 h -9.010649 v -0.85725 l 6.781799,-4.76251 h -6.781799 z"
         style="font-size:8.83105px;line-height:1.46748px;font-family:Pirulen;-inkscape-font-specification:Pirulen;letter-spacing:0px;word-spacing:0px;white-space:pre;fill:#43a047;fill-opacity:0.992157;stroke-width:1.07858"
         id="path866" />
      <path
         d="m 103.38907,112.47615 h -1.3716 l -3.514725,-5.47688 -3.571875,5.47688 h -1.35255 l 4.4577,-6.70561 h 0.923925 z"
         style="font-size:8.83105px;line-height:1.46748px;font-family:Pirulen;-inkscape-font-specification:Pirulen;letter-spacing:0px;word-spacing:0px;white-space:pre;fill:#43a047;fill-opacity:0.992157;stroke-width:1.07858"
         id="path868" />
      <path
         d="m 104.00818,105.77054 h 5.21018 q 2.39077,0 2.39077,1.44781 v 0.63817 q 0,0.8382 -0.74295,1.16205 0.74295,0.3429 0.74295,1.04776 v 0.96202 q 0,1.4478 -2.39077,1.4478 h -5.21018 z m 5.21018,5.715 q 1.12395,0 1.12395,-0.45719 v -1.05727 q 0,-0.20956 -0.2667,-0.33338 -0.25718,-0.12383 -0.79058,-0.12383 h -4.01002 v 1.97167 z m -3.94335,-4.72439 v 1.76213 h 4.02907 q 0.51435,0 0.77153,-0.12384 0.2667,-0.13334 0.2667,-0.33336 v -0.84773 q 0,-0.4572 -1.12395,-0.4572 z"
         style="font-size:8.83105px;line-height:1.46748px;font-family:Pirulen;-inkscape-font-specification:Pirulen;letter-spacing:0px;word-spacing:0px;white-space:pre;fill:#43a047;fill-opacity:0.992157;stroke-width:1.07858"
         id="path870" />
      <path
         d="m 112.79974,105.77054 h 1.26683 v 6.70561 h -1.26683 z"
         style="font-size:8.83105px;line-height:1.46748px;font-family:Pirulen;-inkscape-font-specification:Pirulen;letter-spacing:0px;word-spacing:0px;white-space:pre;fill:#43a047;fill-opacity:0.992157;stroke-width:1.07858"
         id="path872" />
      <path
         d="m 115.16192,105.77054 h 1.27635 v 5.715 h 5.43878 v 0.99061 h -6.71513 z"
         style="font-size:8.83105px;line-height:1.46748px;font-family:Pirulen;-inkscape-font-specification:Pirulen;letter-spacing:0px;word-spacing:0px;white-space:pre;fill:#43a047;fill-opacity:0.992157;stroke-width:1.07858"
         id="path874" />
      <path
         d="m 122.87716,105.77054 h 1.26682 v 6.70561 h -1.26682 z"
         style="font-size:8.83105px;line-height:1.46748px;font-family:Pirulen;-inkscape-font-specification:Pirulen;letter-spacing:0px;word-spacing:0px;white-space:pre;fill:#43a047;fill-opacity:0.992157;stroke-width:1.07858"
         id="path876" />
      <path
         d="m 125.42032,105.77054 h 5.85788 q 2.77177,0 2.77177,1.8288 v 3.06705 q 0,1.80976 -2.77177,1.80976 h -5.85788 z m 5.85788,5.715 q 1.50494,0 1.50494,-0.81915 v -3.06705 q 0,-0.83819 -1.50494,-0.83819 h -4.59106 v 4.72439 z"
         style="font-size:8.83105px;line-height:1.46748px;font-family:Pirulen;-inkscape-font-specification:Pirulen;letter-spacing:0px;word-spacing:0px;white-space:pre;fill:#43a047;fill-opacity:0.992157;stroke-width:1.07858"
         id="path878" />
      <path
         d="m 144.1655,112.47615 h -1.3716 l -3.51472,-5.47688 -3.57188,5.47688 h -1.35255 l 4.4577,-6.70561 h 0.92393 z"
         style="font-size:8.83105px;line-height:1.46748px;font-family:Pirulen;-inkscape-font-specification:Pirulen;letter-spacing:0px;word-spacing:0px;white-space:pre;fill:#43a047;fill-opacity:0.992157;stroke-width:1.07858"
         id="path880" />
      <path
         d="m 144.78462,105.77054 h 5.85788 q 2.77177,0 2.77177,1.8288 v 3.06705 q 0,1.80976 -2.77177,1.80976 h -5.85788 z m 5.85788,5.715 q 1.50494,0 1.50494,-0.81915 v -3.06705 q 0,-0.83819 -1.50494,-0.83819 h -4.59106 v 4.72439 z"
         style="font-size:8.83105px;line-height:1.46748px;font-family:Pirulen;-inkscape-font-specification:Pirulen;letter-spacing:0px;word-spacing:0px;white-space:pre;fill:#43a047;fill-opacity:0.992157;stroke-width:1.07858"
         id="path882" />
      <path
         d="m 166.84449,111.48554 v 0.99061 h -5.11492 q -2.39077,0 -2.39077,-1.54305 v -3.61951 q 0,-1.54305 2.39077,-1.54305 h 5.11492 v 0.99061 h -5.11492 q -1.12394,0 -1.12394,0.55244 v 3.61951 q 0,0.55244 1.12394,0.55244 z"
         style="font-size:8.83105px;line-height:1.46748px;font-family:Pirulen;-inkscape-font-specification:Pirulen;letter-spacing:0px;word-spacing:0px;white-space:pre;fill:#43a047;fill-opacity:0.992157;stroke-width:1.07858"
         id="path884" />
      <path
         d="m 177.17912,112.47615 h -1.37161 l -3.51472,-5.47688 -3.57188,5.47688 h -1.35255 l 4.45771,-6.70561 h 0.92392 z"
         style="font-size:8.83105px;line-height:1.46748px;font-family:Pirulen;-inkscape-font-specification:Pirulen;letter-spacing:0px;word-spacing:0px;white-space:pre;fill:#43a047;fill-opacity:0.992157;stroke-width:1.07858"
         id="path886" />
      <path
         d="m 178.99838,107.37075 v 5.1054 h -1.20015 v -6.70561 h 1.00012 l 6.67703,5.14351 v -5.14351 h 1.20015 v 6.70561 h -1.00013 z"
         style="font-size:8.83105px;line-height:1.46748px;font-family:Pirulen;-inkscape-font-specification:Pirulen;letter-spacing:0px;word-spacing:0px;white-space:pre;fill:#43a047;fill-opacity:0.992157;stroke-width:1.07858"
         id="path888" />
      <path
         d="m 189.12345,107.37075 v 5.1054 h -1.20014 v -6.70561 h 1.00012 l 6.67702,5.14351 v -5.14351 h 1.20016 v 6.70561 h -1.00013 z"
         style="font-size:8.83105px;line-height:1.46748px;font-family:Pirulen;-inkscape-font-specification:Pirulen;letter-spacing:0px;word-spacing:0px;white-space:pre;fill:#43a047;fill-opacity:0.992157;stroke-width:1.07858"
         id="path890" />
      <path
         d="m 207.24,112.47615 h -1.3716 l -3.51473,-5.47688 -3.57187,5.47688 h -1.35255 l 4.4577,-6.70561 h 0.92392 z"
         style="font-size:8.83105px;line-height:1.46748px;font-family:Pirulen;-inkscape-font-specification:Pirulen;letter-spacing:0px;word-spacing:0px;white-space:pre;fill:#43a047;fill-opacity:0.992157;stroke-width:1.07858"
         id="path892" />
      <path
         d="m 207.85911,105.77054 h 5.21018 q 2.39077,0 2.39077,1.44781 v 0.63817 q 0,0.8382 -0.74294,1.16205 0.74294,0.3429 0.74294,1.04776 v 0.96202 q 0,1.4478 -2.39077,1.4478 h -5.21018 z m 5.21018,5.715 q 1.12395,0 1.12395,-0.45719 v -1.05727 q 0,-0.20956 -0.2667,-0.33338 -0.25718,-0.12383 -0.79057,-0.12383 h -4.01003 v 1.97167 z m -3.94335,-4.72439 v 1.76213 h 4.02908 q 0.51434,0 0.77152,-0.12384 0.2667,-0.13334 0.2667,-0.33336 v -0.84773 q 0,-0.4572 -1.12395,-0.4572 z"
         style="font-size:8.83105px;line-height:1.46748px;font-family:Pirulen;-inkscape-font-specification:Pirulen;letter-spacing:0px;word-spacing:0px;white-space:pre;fill:#43a047;fill-opacity:0.992157;stroke-width:1.07858"
         id="path894" />
      <path
         d="m 216.65068,105.77054 h 1.26682 v 6.70561 h -1.26682 z"
         style="font-size:8.83105px;line-height:1.46748px;font-family:Pirulen;-inkscape-font-specification:Pirulen;letter-spacing:0px;word-spacing:0px;white-space:pre;fill:#43a047;fill-opacity:0.992157;stroke-width:1.07858"
         id="path896" />
      <path
         d="m 225.0517,108.40897 q 2.39077,0 2.39077,1.4478 v 1.19062 q 0,1.42876 -2.39077,1.42876 h -5.72453 v -0.99061 h 5.72453 q 1.12394,0 1.12394,-0.43815 v -1.19062 q 0,-0.4572 -1.12394,-0.4572 h -3.56235 q -2.39078,0 -2.39078,-1.4478 v -0.73342 q 0,-1.44781 2.39078,-1.44781 h 5.53403 v 0.99061 h -5.53403 q -1.12396,0 -1.12396,0.4572 v 0.73342 q 0,0.4572 1.12396,0.4572 z"
         style="font-size:8.83105px;line-height:1.46748px;font-family:Pirulen;-inkscape-font-specification:Pirulen;letter-spacing:0px;word-spacing:0px;white-space:pre;fill:#43a047;fill-opacity:0.992157;stroke-width:1.07858"
         id="path898" />
    </g>
    <text
       xml:space="preserve"
       id="text872"
       style="font-size:10.5833px;line-height:1.76389px;font-family:JuneBug;-inkscape-font-specification:JuneBug;letter-spacing:0px;word-spacing:0px;white-space:pre;shape-inside:url(#rect874);fill:#ffffff" />
    <text
       xml:space="preserve"
       id="text1324"
       style="font-style:normal;font-variant:normal;font-weight:normal;font-stretch:normal;font-size:10.5833px;line-height:1.76389px;font-family:Arial;-inkscape-font-specification:Arial;letter-spacing:0px;word-spacing:0px;white-space:pre;shape-inside:url(#rect1326);fill:#000000" />
  </g>
</svg>
